<?xml version="1.0" encoding="utf-8"?>
<!-- Generator: Adobe Illustrator 16.0.1, SVG Export Plug-In . SVG Version: 6.00 Build 0)  -->
<!DOCTYPE svg PUBLIC "-//W3C//DTD SVG 1.1//EN" "http://www.w3.org/Graphics/SVG/1.1/DTD/svg11.dtd">
<svg version="1.1"
	 id="svg2" inkscape:version="0.48.4 r9939" sodipodi:docname="nicki.svg" xmlns:cc="http://creativecommons.org/ns#" xmlns:rdf="http://www.w3.org/1999/02/22-rdf-syntax-ns#" xmlns:dc="http://purl.org/dc/elements/1.1/" xmlns:sodipodi="http://sodipodi.sourceforge.net/DTD/sodipodi-0.dtd" xmlns:inkscape="http://www.inkscape.org/namespaces/inkscape" xmlns:svg="http://www.w3.org/2000/svg"
	 xmlns="http://www.w3.org/2000/svg" xmlns:xlink="http://www.w3.org/1999/xlink" x="0px" y="0px" width="621px" height="600px"
	 viewBox="0 0 621 600" enable-background="new 0 0 621 600" xml:space="preserve">
<defs>
	
	
		<inkscape:path-effect  vertical_pattern="false" id="path-effect3866" spacing="0" copytype="single_stretched" prop_scale="1" normal_offset="0" pattern="M 0,0 1,0" tang_offset="0" scale_y_rel="false" prop_units="false" fuse_tolerance="0" effect="skeletal" is_visible="true">
		</inkscape:path-effect>
	
		<inkscape:path-effect  vertical_pattern="false" id="path-effect3862" spacing="0" copytype="single_stretched" prop_scale="1" normal_offset="0" pattern="M 0,0 1,0" tang_offset="0" scale_y_rel="false" prop_units="false" fuse_tolerance="0" effect="skeletal" is_visible="true">
		</inkscape:path-effect>
</defs>
<sodipodi:namedview  inkscape:pageshadow="2" inkscape:window-maximized="1" inkscape:pageopacity="0.0" inkscape:document-units="px" inkscape:window-x="0" inkscape:window-width="1680" inkscape:current-layer="layer1" inkscape:window-height="994" inkscape:window-y="27" id="base" showgrid="false" inkscape:cy="269.55114" inkscape:cx="497.69313" bordercolor="#666666" borderopacity="1.0" inkscape:zoom="0.98994949" pagecolor="#ffffff">
	</sodipodi:namedview>
<g>
	<path fill="#318064" d="M642.745-0.907H-3.72v601.813h646.465c1.594,0,2.886-1.291,2.886-2.885V1.978
		C645.631,0.384,644.339-0.907,642.745-0.907z M38.158,599.97c0.596-1.488,20.832-22.616,27.378-28.567
		c6.546-5.952,33.627-26.484,34.52-28.866c0.893-2.382,2.679-27.08,5.356-33.627c2.679-6.547,13.094-32.139,13.094-32.139
		s10.117-29.759,10.321-30.735c0,0,7.997-24.83,7.997-31.144c0-5.398,9.232-20.644,11.904-24.942
		c-3.383-0.411-7.789-1.016-12.503-1.664c-5.689-0.322-11.683-0.824-14.551-1.591c-1.516-0.403-4.62-0.81-8.604-1.349
		c-1.721-0.166-3.232-0.284-4.442-0.334c-5.031-0.21-13.302-1.987-20.958-4.446c-5.521-1.568-10.648-3.594-14.468-6.249
		c-1.221-0.787-2.205-1.577-2.87-2.352C60.328,361.96,57.823,351.302,53.06,337.98c-0.414-0.928-0.832-1.979-1.175-3.196
		c-0.295-0.786-0.595-1.574-0.913-2.38c-6.312-15.992,8.838-30.722,10.941-35.351c1.355-2.979,23.962-30.522,40.924-52.029
		l18.837-26.249c0,0,0.023-0.019,0.029-0.023c0.232-0.822,0.394-1.736,0.488-2.73c-0.075-0.032-0.117-0.089-0.097-0.192
		c0.42-2.104-3.367-20.201-5.892-28.618c-1.132-3.774-1.33-7.38-1.132-11.12c-0.23-7.234,0.711-16.977,0.711-19.181
		c0-2.549-2.829-19.89-0.872-29.158c0.012-0.103,0.017-0.199,0.029-0.302c1.683-13.888,14.309-17.254,24.409-27.776
		c0.728-0.758,1.507-1.452,2.312-2.114c2.145-2.311,4.096-4.578,5.686-6.724c8.417-11.362-2.105-32.825,0.841-39.138
		c2.945-6.312,11.784-9.679,19.779-20.201c7.997-10.521,16.414-13.046,24.41-17.255c7.996-4.209,15.15-6.313,26.934-5.892
		c11.784,0.42,24.409-2.525,24.409-2.525s20.306-1.324,29.233-1.324c8.928,0,25.294-1.488,33.626-2.678
		c8.333-1.191,31.842,2.082,50.589,10.117s52.077,26.188,57.732,31.545c5.653,5.356,22.318,3.57,38.686,0.595
		c16.366-2.975,30.65,11.011,27.675,18.153c-2.976,7.142,3.571,19.641,10.713,25.294c7.143,5.655,22.617,19.641,23.807,41.96
		c1.191,22.318,3.273,34.221,16.367,49.398s14.88,24.997,17.855,30.056c2.975,5.06,13.689,17.855,16.665,28.866
		c2.976,11.011-2.678,29.759-4.761,35.71c-2.084,5.952-0.895,18.748-1.785,23.211c-0.893,4.463-12.5,9.225-15.475,10.712
		c-2.978,1.489-18.451-6.249-23.511-16.962c-5.059-10.713-10.712-22.914-13.688-26.783c-2.978-3.869-6.846-14.878-9.523-19.64
		c-2.679-4.761-0.893-20.534-3.274-25.295c-2.379-4.761-7.143,2.083-13.391-2.083c-6.249-4.166-7.439-5.356-7.736-3.272
		c-0.298,2.083,0.595,21.127,2.678,30.353s8.63,12.201,14.283,19.938c5.655,7.738,20.534,28.271,25.593,35.116
		c5.059,6.844,23.212,28.27,29.163,38.984c5.951,10.713,19.641,65.767,24.997,86.895c5.356,21.129,5.654,11.011,3.274,20.235
		c-2.381,9.227,3.867,36.009,13.688,66.957c9.821,30.949,15.178,29.164,24.402,45.232c9.226,16.07,31.545,43.149,31.545,43.149
		S37.564,601.458,38.158,599.97z"/>
	<path fill="#2A2A2A" d="M134.013,215.936c-4.841,5.689-11.782,11.481-17.969,18.57c2.649-2.201,5.635-4.373,8.997-7.733
		C128.732,223.081,131.785,219.13,134.013,215.936z"/>
	<path fill="#2A2A2A" d="M135.451,209.417c1.458-0.625,2.715-0.954,2.815-0.162C139.177,207.878,137.771,208.289,135.451,209.417z"
		/>
	<path fill="#2A2A2A" d="M106.518,248.125c-4.878,8.645-7.571,15.866-13.041,20.311c-2.561,2.08-5.18,3.551-7.076,4.878
		c2.368-1.313,6.037-2.995,10.022-6.141C104.125,261.093,102.861,258.115,106.518,248.125z"/>
	<path fill="#2A2A2A" d="M84.218,277.273c-0.297-0.396-0.456-0.748-0.509-1.077c-0.354,1.216,0.329,2.587,2.613,4.443
		c6.734,5.471,21.043,9.258,28.197,8.417c0.294-0.035,0.628-0.071,0.953-0.107c-6.318-0.509-13.841-1.915-16.104-2.417
		C95.582,285.69,86.744,280.641,84.218,277.273z"/>
	<path fill="#2A2A2A" d="M222.257,242.764c-0.131-0.219-0.271-0.466-0.411-0.721c0.826,3.427,2.063,6.07,6.303,7.033
		c1.524,0.347,3.141,0.289,4.808-0.023C227.35,249.158,223.95,245.586,222.257,242.764z"/>
	<path fill="#2A2A2A" d="M192.797,227.193c-2.122,0.816-4.878,2.778-7.676,5.235c2.508-2.096,5-3.681,7.256-4.394
		c4.605-1.455,9.35-4.161,13.993-4.508C201.966,223.321,196.907,225.613,192.797,227.193z"/>
	<path fill="#2A2A2A" d="M144.177,282.327c-6.053,2.537-15.661,3.753-18.887,5.454C132.149,286.812,139.797,285.231,144.177,282.327
		z"/>
	<path fill="#2A2A2A" d="M121.673,386.694c2.869,0.767,8.862,1.269,14.551,1.591c-8.06-1.109-16.989-2.343-23.155-2.939
		C117.053,385.885,120.158,386.291,121.673,386.694z"/>
	<path fill="#2A2A2A" d="M587.202,511.885c-9.821-30.947-16.068-57.73-13.688-66.957c2.38-9.225,2.082,0.894-3.274-20.235
		c-5.356-21.128-19.045-76.182-24.996-86.895c-5.952-10.714-24.105-32.14-29.164-38.984c-5.058-6.845-19.938-27.378-25.592-35.116
		c-5.653-7.737-12.201-10.712-14.284-19.938s-2.976-28.271-2.677-30.353c0.296-2.083,1.486-0.893,7.735,3.272
		c6.249,4.167,11.012-2.679,13.392,2.083c2.381,4.761,0.595,20.534,3.273,25.295c2.678,4.761,6.546,15.771,9.523,19.64
		c2.976,3.87,8.629,16.07,13.688,26.783c5.06,10.713,20.533,18.451,23.511,16.962c2.975-1.486,14.581-6.249,15.475-10.712
		c0.892-4.463-0.299-17.259,1.785-23.211c2.083-5.951,7.736-24.699,4.761-35.71c-2.976-11.011-13.69-23.807-16.665-28.867
		c-2.976-5.058-4.761-14.878-17.855-30.055c-13.094-15.178-15.177-27.08-16.367-49.398c-1.189-22.32-16.664-36.306-23.807-41.96
		s-13.688-18.153-10.713-25.294c2.976-7.143-11.309-21.129-27.675-18.153c-16.366,2.976-33.032,4.761-38.686-0.595
		c-5.655-5.357-38.984-23.509-57.732-31.545s-42.257-11.31-50.59-10.118c-8.333,1.19-24.699,2.678-33.626,2.678
		c-8.927,0-29.233,1.325-29.233,1.325s-12.626,2.946-24.409,2.524c-11.784-0.42-18.938,1.684-26.934,5.893
		c-7.996,4.208-16.414,6.733-24.41,17.255c-7.997,10.52-16.835,13.886-19.779,20.2c-2.946,6.313,7.575,27.776-0.841,39.138
		c-1.59,2.146-3.541,4.413-5.686,6.724c10.358-8.519,26.522-9.37,34.724-10.932c8.838-1.683,30.722,3.787,45.873,5.049
		c15.15,1.263,5.049-11.363,19.358-24.409c14.309-13.046,13.047,0,26.935,4.209c13.887,4.208,14.729,16.833,18.938,29.459
		c4.208,12.625,6.312,19.359,14.308,26.935c7.995,7.575,15.571,11.784,21.465,20.201c5.891,8.417-8.839,2.946-17.676,10.942
		c-8.838,7.996,0.421,10.1,13.046,15.15c12.626,5.051,1.263,8.417-7.995,16.414c-9.259,7.997-4.629,5.471,3.787,10.521
		c8.418,5.05-3.787,6.734-10.941,11.785c-7.154,5.05-22.306,5.05-34.931,9.258c-12.625,4.208-6.733,21.883-9.68,20.2
		c-2.745-1.568-4.033-3.498-13.727,2.033c4.58-2.018,8.856-3.487,12.044-1.612c7.153,4.209,9.68,14.309,21.463,12.626
		c11.784-1.683,39.98-2.525,49.66-2.525c9.681,0,34.089,2.104,41.665,5.893c7.577,3.787,18.938,12.204,20.621,5.47
		c1.685-6.733-0.42-14.729-7.154-23.988c-6.732-9.258-12.625-20.201-11.362-24.83c1.263-4.629,10.942-10.1,19.359-3.367
		c8.417,6.734,31.144,3.367,30.723,15.992c-0.422,12.626,7.152,31.985,1.684,39.559c-5.472,7.575-9.259,11.784-10.101,23.568
		c-0.843,11.784-1.263,21.884-10.522,35.772c-9.259,13.888-9.259,23.147-11.783,35.35c-2.525,12.207-1.263,34.511-8.839,44.611
		c-7.574,10.101-3.367,20.201-8.837,25.25c-5.471,5.051,3.789,13.048-2.946,17.256s-20.622,14.308-26.935,14.308
		c-6.313,0-18.097,4.63-30.723,2.104c-12.625-2.525-15.992-2.525-26.513,0.842s-20.622-6.312-15.151-12.204
		s23.147-22.307,27.776-26.513c4.629-4.21,17.254-23.147,18.517-29.04c1.263-5.892,16.412-21.884,16.412-30.723
		c0-8.837,6.313-23.987,6.313-32.824c0-8.84-3.367-21.042-14.308-20.202c-10.942,0.842-23.147,4.63-31.564,9.68
		c-8.418,5.05-18.939,13.048-26.093,18.938s-25.672,25.671-34.089,30.723c-8.417,5.051-29.459,9.68-37.035,12.204
		c-7.574,2.525-37.875,3.788-42.926,3.788c-1.012,0-3.068-0.206-5.772-0.532c-2.672,4.298-11.903,19.543-11.903,24.942
		c0,6.312-7.997,31.144-7.997,31.144c-0.205,0.978-10.321,30.735-10.321,30.735s-10.416,25.592-13.094,32.139
		c-2.678,6.548-4.463,31.245-5.356,33.627c-0.893,2.382-27.973,22.914-34.52,28.866c-6.546,5.951-26.782,27.079-27.378,28.567
		c-0.595,1.487,604.99,0.297,604.99,0.297s-22.318-27.079-31.545-43.149C602.38,541.049,597.023,542.834,587.202,511.885z
		 M275.284,353.448c4.208-2.104,6.732-2.104,4.628-4.629c-2.104-2.526,2.104-12.205,5.472-12.205c0,0,15.15,5.891,13.887,10.521
		s-3.367,23.989-7.996,23.566c-4.628-0.421-7.153-1.263-10.521-0.421c-3.367,0.844-8.838,4.63-8.838,0
		C271.916,365.651,271.075,355.551,275.284,353.448z M215.944,492.749c0,5.891-7.576,37.455-10.101,46.293
		c-2.525,8.837-18.097,31.564-23.567,36.612c-5.471,5.05-22.726,13.469-31.564,16.835s-21.042-1.263-24.83-2.946
		c-3.788-1.684-17.255-6.312-21.464-9.68c-4.209-3.368-6.312-11.362-6.312-18.097s4.209-26.092,4.209-34.931
		c0-8.838,6.733-25.671,10.521-32.404s13.887-36.193,15.992-45.03c2.104-8.838,24.409-58.078,24.409-58.078
		s11.362,2.105,19.779,0.421c8.417-1.684,31.144-4.629,37.457-7.154c6.312-2.525,26.091-9.258,30.301-13.889
		c4.208-4.63,30.722-29.039,30.722-29.039s-6.733,17.256-10.1,20.202c-3.367,2.945-18.518,44.609-21.463,50.923
		c-2.947,6.312-12.626,39.561-13.888,44.609C224.782,462.446,215.944,486.857,215.944,492.749z M242.037,426.676
		c-1.683,4.209-2.104,6.312-4.629,7.153c-2.525,0.843-4.209,0.843-4.209,0.843l4.209-11.784
		C237.407,422.888,243.72,422.467,242.037,426.676z M260.554,409.84c0,0-5.471,5.471-7.997,7.997
		c-2.524,2.525-3.787,6.733-7.576,4.209c-3.787-2.525-5.89-5.892-2.104-8.838c3.789-2.945,2.525-11.784,5.893-11.784
		c3.366,0,7.575-4.629,9.679-2.104C260.554,401.844,265.604,403.529,260.554,409.84z M259.292,390.061
		c2.525-2.945,3.787-8.416,5.892-13.467c2.103-5.05,3.367-2.104,6.312-1.262c2.948,0.841,3.789-4.631,8.417-3.788
		c4.63,0.841,2.104,9.68,2.104,9.68h0.001c0,0-13.047,17.254-18.518,17.254C258.029,398.478,256.766,393.007,259.292,390.061z
		 M519.375,184.266c0,11.785-7.153,11.785-11.362,9.68s-4.209-7.575-5.05-19.78c-0.843-12.204-10.521-13.467-14.729-25.671
		c-1.25-3.625-1.009-5.833-0.061-7.154h-2.466h2.466c2.244-3.126,8.478-1.263,8.478-1.263s9.259,2.104,16.412,13.047
		C520.217,164.065,519.375,172.482,519.375,184.266z M433.279,48.178c4.192-1.068,29.872-7.287,36.437-1.108
		c7.152,6.733,12.205,8.838,10.942,15.15s1.683,15.15,2.945,20.621c1.263,5.471-9.68,3.367-18.518-3.787
		c-8.837-7.155-15.571-14.309-17.255-20.201C446.259,53.344,436.592,47.84,433.279,48.178c-0.377,0.096-0.599,0.155-0.599,0.155
		C432.846,48.25,433.049,48.201,433.279,48.178z M465.086,119.876c-5.469-6.734-14.308-8.838-21.042-10.942
		c-6.735-2.103-2.525,17.255-2.945,21.884c-0.422,4.629-13.469,14.729-16.835,13.467c-3.367-1.262,2.104-15.15,6.732-23.147
		c4.63-7.997,5.893-22.305,12.206-28.196c6.312-5.891,20.622,5.892,20.622,5.892c-2.946,0,20.621,1.261,36.192,4.208
		c15.572,2.946,11.363,27.776,9.259,33.247c-2.104,5.471-19.358-0.842-24.409-2.104C479.815,132.923,470.557,126.61,465.086,119.876
		z"/>
	<path fill="#2A2A2A" d="M87.669,380.565c-5.69-1.827-11.035-4.029-14.468-6.249C77.021,376.972,82.147,378.997,87.669,380.565z"/>
	<path fill="#2A2A2A" d="M169.229,252.443c0.246-0.489,0.515-0.998,0.804-1.519c-5.423,7.574-14.339,19.166-19.032,25.304
		C157.805,269.208,166.091,258.721,169.229,252.443z"/>
	<path fill="#2A2A2A" d="M114.911,127.754c-1.958,9.268,0.872,26.608,0.872,29.158c0,2.204-0.941,11.947-0.711,19.181
		c0.244-4.6,1.089-9.402,1.552-14.974C117.458,151.094,113.325,141.478,114.911,127.754z"/>
	<path fill="#2A2A2A" d="M122.191,216.022c-0.094,0.996-0.254,1.909-0.488,2.73c0.269-0.214,6.267-4.998,10.065-7.409
		C127.58,213.624,122.892,216.326,122.191,216.022z"/>
	<path fill="#2A2A2A" d="M53.059,337.983c4.763,13.318,7.268,23.977,17.271,33.981c-5.049-5.892-14.729-25.25-15.571-29.88
		C54.557,340.972,53.817,339.683,53.059,337.983z"/>
	<path fill="#2A2A2A" d="M61.492,301.684c17.676-28.197,34.51-47.136,34.51-47.136l6.834-9.523
		c-16.961,21.507-39.569,49.051-40.924,52.029c-2.104,4.629-17.255,19.358-10.941,35.351c0.317,0.806,0.616,1.594,0.912,2.38
		C50.247,328.966,50.391,319.394,61.492,301.684z"/>
	<path fill="#494949" d="M131.768,211.343c0.635-0.403,1.215-0.749,1.689-0.985c0.646-0.323,1.339-0.662,1.993-0.941
		c2.321-1.129,3.726-1.54,2.815-0.162c0.088,0.701-0.73,2.278-3.124,5.312c-0.36,0.456-0.739,0.911-1.128,1.368
		c-2.229,3.195-5.281,7.145-8.972,10.837c-3.362,3.36-6.346,5.533-8.997,7.733c-2.024,2.321-3.972,4.775-5.733,7.417
		c-1.422,2.133-2.666,4.206-3.793,6.203c-3.657,9.99-2.393,12.967-10.096,19.047c-3.984,3.146-7.653,4.828-10.022,6.141
		c-1.398,0.979-2.399,1.878-2.692,2.883c0.054,0.329,0.212,0.681,0.509,1.077c2.524,3.367,11.362,8.416,15.15,9.258
		c2.263,0.503,9.786,1.906,16.104,2.417c2.589-0.29,6.071-0.64,9.818-1.169c3.226-1.7,12.833-2.916,18.887-5.454
		c0.213-0.142,0.447-0.275,0.644-0.424c1.712-1.285,3.861-3.278,6.181-5.673c4.693-6.138,13.609-17.731,19.032-25.304
		c3.271-5.904,9.226-13.599,15.086-18.498c2.799-2.457,5.555-4.419,7.677-5.235c4.109-1.581,9.169-3.873,13.573-3.667
		c3.417-0.258,6.783,0.761,9.994,4.508c4.106,4.791,4.505,9.95,5.481,14.009c0.141,0.253,0.28,0.502,0.412,0.721
		c1.693,2.823,5.091,6.395,10.699,6.289c3.946-0.736,8.183-2.914,12.187-4.678c9.694-5.53,10.981-3.601,13.727-2.033
		c2.947,1.683-2.947-15.991,9.68-20.2c12.625-4.209,27.776-4.209,34.931-9.258c7.153-5.05,19.359-6.734,10.941-11.785
		c-8.416-5.049-13.047-2.524-3.788-10.521c9.259-7.997,20.622-11.363,7.996-16.414c-12.625-5.05-21.884-7.154-13.046-15.15
		c8.837-7.997,23.566-2.526,17.676-10.942c-5.893-8.417-13.47-12.626-21.465-20.201c-7.996-7.575-10.101-14.309-14.308-26.935
		c-4.209-12.625-5.05-25.251-18.938-29.459c-13.889-4.208-12.626-17.255-26.935-4.209c-14.308,13.047-4.209,25.672-19.358,24.409
		c-15.15-1.262-37.035-6.733-45.873-5.05c-8.202,1.563-24.365,2.412-34.724,10.933c-0.804,0.662-1.584,1.356-2.312,2.114
		c-10.1,10.521-22.726,13.888-24.409,27.776c-0.012,0.103-0.018,0.201-0.029,0.302c-1.586,13.724,2.548,23.34,1.713,33.366
		c-0.465,5.572-1.309,10.374-1.552,14.974c-0.199,3.74,0,7.346,1.132,11.12c2.524,8.417,6.312,26.514,5.892,28.618
		c-0.021,0.104,0.022,0.16,0.097,0.192C122.892,216.326,127.58,213.624,131.768,211.343z M294.643,168.275
		c5.049,3.367,17.253,10.521,17.253,10.521c-5.469,6.733-22.306,8.838-28.196,9.258c-5.892,0.42-29.04-3.367-31.144-3.367
		s1.263-6.312,1.263-6.312s2.946-3.367,13.888-11.362C278.65,159.015,289.592,164.907,294.643,168.275z M231.516,123.243
		c5.471-7.575,14.728-20.621,22.726-18.938c7.996,1.684,15.571,1.264,21.043,7.576c5.471,6.312,14.307,14.729,7.153,16.833
		c-7.153,2.104-15.57,7.155-20.201,12.206c0,0-5.049,5.47-14.308,8.838c-9.259,3.368-12.206,7.575-16.834,1.263
		C226.465,144.707,226.044,130.819,231.516,123.243z M130.512,163.645c-9.258,0.42-11.363-11.785-11.363-15.993
		c0-4.207-1.262-4.628,6.312-7.154c7.575-2.525,16.413,13.047,16.413,13.047C143.137,158.173,139.77,163.224,130.512,163.645z
		 M156.184,97.572c5.05,0,13.045-5.893,16.833-2.525c3.788,3.368,7.996,21.884,5.891,28.618c-2.104,6.734-9.679,16.834-15.571,19.78
		c0,0-13.887,0.841-17.676-6.313c-3.788-7.154-10.521-14.309-7.154-21.463C141.875,108.514,151.132,97.572,156.184,97.572z"/>
	<path fill="#B7741A" d="M267.708,167.012c-10.942,7.996-13.888,11.362-13.888,11.362s-3.367,6.312-1.263,6.312
		s25.251,3.788,31.144,3.368c5.89-0.42,22.727-2.525,28.196-9.258c0,0-12.205-7.154-17.253-10.521
		C289.592,164.907,278.65,159.015,267.708,167.012z M305.164,181.32c-2.104,2.104-14.73,2.525-22.306,2.104
		c-7.574-0.421-10.942-7.575-12.205-10.942c-1.263-3.368,9.258-6.312,9.258-6.312C292.959,163.224,307.268,179.216,305.164,181.32z"
		/>
	<path fill="#B67E1A" d="M125.461,140.498c-7.576,2.526-6.312,2.946-6.312,7.154c0,4.209,2.104,16.414,11.363,15.993
		c9.258-0.421,12.625-5.471,11.362-10.1C141.874,153.544,133.037,137.973,125.461,140.498z M128.618,156.28
		c0,0-7.365-8.207-4.208-10.731c3.156-2.524,10.1-2.735,12.204,1.473C138.718,151.23,136.404,159.437,128.618,156.28z"/>
	<path fill="#CF9636" d="M270.654,172.482c1.263,3.368,4.63,10.521,12.205,10.942c7.575,0.42,20.202,0,22.306-2.104
		c2.104-2.104-12.205-18.096-25.252-15.15C279.912,166.17,269.391,169.115,270.654,172.482z M282.017,171.009
		c1.895-2.524,4.63,0.42,4.63,1.263c0,0.841-0.21,1.893-2.736,2.946C283.911,175.218,280.124,173.534,282.017,171.009z"/>
	<path fill="#16001A" d="M283.911,175.218c2.526-1.052,2.736-2.104,2.736-2.946c0-0.842-2.736-3.788-4.63-1.263
		C280.124,173.534,283.911,175.218,283.911,175.218z"/>
	<path fill="#CDA055" d="M124.41,145.548c-3.156,2.525,4.208,10.731,4.208,10.731c7.786,3.156,10.1-5.051,7.996-9.259
		C134.51,142.813,127.565,143.023,124.41,145.548z M134.51,150.388c0,0-6.734-2.104-5.681-4.209
		c1.053-2.104,6.102-0.631,6.944,1.684C136.614,150.177,134.51,150.388,134.51,150.388z"/>
	<path fill="#16001A" d="M128.829,146.179c-1.052,2.104,5.681,4.209,5.681,4.209s2.104-0.21,1.263-2.524
		C134.931,145.548,129.88,144.076,128.829,146.179z"/>
	<path fill="#CE9A4B" d="M247.929,149.757c9.258-3.368,14.308-8.838,14.308-8.838c4.629-5.051,13.047-10.1,20.201-12.206
		c7.154-2.104-1.683-10.521-7.153-16.833c-5.471-6.312-13.047-5.892-21.043-7.576c-7.997-1.683-17.254,11.363-22.726,18.938
		c-5.473,7.576-5.05,21.463-0.422,27.776C235.724,157.332,238.669,153.125,247.929,149.757z"/>
	<path fill="#CE9A4B" d="M145.662,137.131c3.788,7.154,17.676,6.313,17.676,6.313c5.892-2.946,13.468-13.047,15.571-19.78
		c2.104-6.732-2.104-25.25-5.891-28.618c-3.788-3.367-11.784,2.525-16.833,2.525c-5.051,0-14.31,10.941-17.677,18.096
		C135.141,122.822,141.874,129.978,145.662,137.131z"/>
	<path fill="#CE9A4B" d="M197.426,386.694c7.576-2.524,28.618-7.153,37.035-12.204s26.935-24.831,34.089-30.723
		s17.675-13.888,26.093-18.938c8.417-5.05,20.621-8.838,31.564-9.68c10.941-0.841,14.308,11.362,14.308,20.202
		c0,8.837-6.313,23.987-6.313,32.824c0,8.839-15.149,24.829-16.412,30.723s-13.887,24.83-18.517,29.04
		c-4.629,4.207-22.305,20.621-27.776,26.513c-5.47,5.891,4.63,15.57,15.151,12.204c10.521-3.367,13.887-3.367,26.513-0.842
		c12.626,2.526,24.408-2.104,30.723-2.104c6.313,0,20.2-10.1,26.935-14.308s-2.525-12.205,2.946-17.256
		c5.471-5.049,1.263-15.149,8.837-25.25c7.576-10.101,6.313-32.405,8.839-44.611c2.524-12.203,2.524-21.462,11.782-35.35
		c9.26-13.887,9.68-23.987,10.523-35.772c0.842-11.785,4.629-15.993,10.101-23.568c5.469-7.575-2.105-26.934-1.685-39.559
		c0.422-12.625-22.305-9.258-30.722-15.992c-8.417-6.733-18.097-1.263-19.359,3.367c-1.263,4.629,4.63,15.572,11.362,24.83
		c6.734,9.259,8.839,17.255,7.154,23.988c-1.683,6.734-13.045-1.684-20.621-5.47c-7.575-3.788-31.985-5.893-41.665-5.893
		s-37.876,0.842-49.66,2.525c-11.784,1.683-14.309-8.417-21.463-12.626c-3.188-1.875-7.464-0.406-12.044,1.612
		c-4.004,1.763-8.24,3.941-12.187,4.678c-1.667,0.312-3.284,0.37-4.808,0.023c-4.24-0.963-5.477-3.606-6.303-7.033
		c-0.977-4.059-1.375-9.218-5.481-14.01c-3.212-3.749-6.577-4.766-9.994-4.508c-4.644,0.349-9.388,3.054-13.994,4.508
		c-2.256,0.712-4.749,2.297-7.255,4.394c-5.863,4.899-11.817,12.593-15.088,18.498c-0.289,0.521-0.559,1.028-0.804,1.519
		c-3.138,6.276-11.424,16.764-18.228,23.787c-2.321,2.395-4.468,4.389-6.181,5.673c-0.197,0.148-0.43,0.282-0.644,0.424
		c-4.379,2.904-12.026,4.484-18.887,5.454c-3.747,0.529-7.229,0.88-9.818,1.169c-0.325,0.037-0.659,0.074-0.953,0.107
		c-7.155,0.841-21.464-2.946-28.197-8.417c-2.284-1.855-2.966-3.227-2.613-4.443c0.293-1.005,1.294-1.905,2.692-2.883
		c1.896-1.326,4.515-2.798,7.076-4.878c5.47-4.444,8.163-11.667,13.041-20.311c1.127-1.997,2.371-4.07,3.793-6.203
		c1.761-2.643,3.708-5.096,5.733-7.417c6.187-7.089,13.128-12.882,17.969-18.57c0.389-0.457,0.768-0.912,1.128-1.368
		c2.394-3.034,3.212-4.612,3.124-5.312c-0.1-0.792-1.357-0.463-2.815,0.162c-0.654,0.28-1.346,0.618-1.993,0.941
		c-0.474,0.236-1.054,0.582-1.689,0.985c-3.798,2.411-9.796,7.194-10.065,7.409c-0.006,0.005-0.029,0.023-0.029,0.023
		l-18.837,26.249l-6.834,9.523c0,0-16.833,18.938-34.51,47.136c-11.103,17.709-11.246,27.282-9.609,33.102
		c0.343,1.218,0.762,2.269,1.174,3.197c0.759,1.7,1.498,2.99,1.7,4.104c0.841,4.629,10.521,23.986,15.571,29.879
		c0.665,0.774,1.65,1.565,2.87,2.353c3.434,2.22,8.778,4.421,14.468,6.249c7.656,2.459,15.927,4.236,20.958,4.446
		c1.21,0.05,2.721,0.168,4.442,0.334c6.166,0.597,15.096,1.83,23.155,2.94c4.715,0.647,9.121,1.252,12.503,1.663
		c2.703,0.327,4.759,0.531,5.772,0.531C159.55,390.482,189.851,389.22,197.426,386.694z M103.156,371.124
		c-2.524,0.841-13.887-0.843-18.518-3.368c-4.629-2.524-15.151-8.416-18.938-12.205c-3.788-3.786-6.734-16.833-9.68-19.779
		c-2.946-2.946-2.525-9.26-2.525-15.992s7.154-10.941,13.046-19.358c5.893-8.418,14.309-6.734,24.409-6.734
		c10.1,0,14.309,1.683,27.355,5.892c13.046,4.208,21.042,11.363,21.042,11.363c1.683,1.684,6.734,8.837,6.734,14.729
		c0,5.891-5.051,26.513-10.521,29.879C130.091,358.919,105.682,370.281,103.156,371.124z"/>
	<path fill="#3F3F3F" d="M146.083,325.672c0-5.891-5.051-13.046-6.734-14.729c0,0-7.997-7.155-21.042-11.363
		c-13.047-4.209-17.254-5.892-27.355-5.892c-10.102,0-18.518-1.683-24.409,6.734c-5.892,8.416-13.046,12.626-13.046,19.359
		c0,6.732-0.42,13.047,2.525,15.99c2.946,2.947,5.892,15.993,9.68,19.781c3.787,3.788,14.309,9.68,18.938,12.204
		c4.629,2.526,15.992,4.21,18.517,3.369c2.526-0.843,26.935-12.206,32.406-15.572C141.033,352.185,146.083,331.563,146.083,325.672z
		 M65.281,344.608c-4.209,0.422-4.629-5.049-6.312-8.416c-1.684-3.367-2.946-6.312,2.104-7.995
		c5.05-1.686,9.258,10.521,9.258,10.521S69.488,344.188,65.281,344.608z M119.991,355.131c0,0-12.205,4.209-18.518,2.525
		c-6.314-1.683-10.101-5.892-10.522-10.942c-0.42-5.051,2.104-6.734,7.576-9.258c5.47-2.524,13.887,0.84,13.887,5.049
		c0,4.207,8.417,8.838,8.417,8.838L119.991,355.131z"/>
	<path d="M112.415,342.505c0-4.209-8.417-7.573-13.887-5.048c-5.471,2.523-7.997,4.207-7.575,9.258
		c0.421,5.05,4.208,9.26,10.521,10.942c6.312,1.684,18.518-2.526,18.518-2.526l0.841-3.786
		C120.832,351.344,112.415,346.714,112.415,342.505z"/>
	<path d="M61.072,328.197c-5.05,1.683-3.788,4.629-2.104,7.995c1.683,3.367,2.104,8.838,6.312,8.416
		c4.208-0.42,5.049-5.891,5.049-5.891S66.122,326.512,61.072,328.197z"/>
	<path fill="#CEA9BD" d="M261.396,361.864c3.368-2.945,10.1-20.201,10.1-20.201s-26.514,24.409-30.722,29.04
		c-4.209,4.63-23.988,11.363-30.301,13.888c-6.312,2.525-29.039,5.47-37.457,7.155c-8.417,1.684-19.779-0.423-19.779-0.423
		s-22.306,49.241-24.409,58.079c-2.105,8.837-12.205,38.297-15.992,45.03c-3.787,6.733-10.521,23.566-10.521,32.404
		c0,8.839-4.209,28.196-4.209,34.931s2.104,14.729,6.312,18.097c4.208,3.367,17.676,7.996,21.464,9.68
		c3.787,1.684,15.992,6.312,24.83,2.946c8.838-3.366,26.092-11.785,31.564-16.835c5.471-5.048,21.043-27.775,23.567-36.613
		c2.525-8.837,10.101-40.401,10.101-46.293c0-5.891,8.837-30.302,10.1-35.352c1.263-5.049,10.943-38.298,13.888-44.609
		C242.877,406.476,258.029,364.81,261.396,361.864z"/>
	<path fill="#FFFFFF" d="M237.407,422.888l-4.209,11.784c0,0,1.684,0,4.209-0.843c2.525-0.842,2.947-2.945,4.629-7.153
		C243.72,422.467,237.407,422.888,237.407,422.888z"/>
	<path fill="#FFFFFF" d="M258.45,399.32c-2.104-2.525-6.312,2.105-9.679,2.105c-3.368,0-2.104,8.837-5.893,11.783
		c-3.787,2.946-1.683,6.312,2.104,8.838c3.79,2.525,5.051-1.685,7.576-4.21c2.525-2.525,7.997-7.995,7.997-7.995
		C265.604,403.529,260.554,401.846,258.45,399.32z"/>
	<path fill="#FFFFFF" d="M282.018,381.224L282.018,381.224c-0.001,0,2.525-8.837-2.104-9.68c-4.628-0.843-5.47,4.63-8.417,3.789
		c-2.946-0.842-4.208-3.789-6.312,1.262c-2.104,5.052-3.367,10.521-5.892,13.468c-2.525,2.946-1.263,8.417,4.208,8.417
		C268.973,398.479,282.018,381.224,282.018,381.224z"/>
	<path fill="#FFFFFF" d="M280.755,370.281c3.368-0.842,5.892,0,10.521,0.42c4.63,0.423,6.733-18.937,7.996-23.565
		s-13.887-10.521-13.887-10.521c-3.368,0-7.575,9.68-5.472,12.206c2.104,2.524-0.42,2.524-4.628,4.63
		c-4.209,2.104-3.368,12.204-3.368,16.833C271.917,374.911,277.388,371.124,280.755,370.281z"/>
	<line fill="none" x1="488.174" y1="141.34" x2="485.708" y2="141.34"/>
	<path fill="#CE9A4B" d="M496.649,140.077c0,0-6.231-1.864-8.478,1.263c-0.947,1.321-1.189,3.529,0.062,7.154
		c4.209,12.204,13.887,13.467,14.729,25.671c0.842,12.205,0.842,17.676,5.05,19.779c4.208,2.104,11.362,2.105,11.362-9.68
		c0-11.784,0.842-20.201-6.312-31.142C505.909,142.182,496.649,140.077,496.649,140.077z"/>
	<path fill="#494949" d="M432.681,48.332c0,0,0.222-0.059,0.599-0.155C433.049,48.201,432.846,48.25,432.681,48.332z"/>
	<path fill="#494949" d="M447.831,58.853c1.684,5.892,8.418,13.046,17.255,20.201c8.838,7.154,19.78,9.258,18.518,3.787
		c-1.263-5.471-4.208-14.308-2.945-20.621s-3.79-8.417-10.942-15.15c-6.564-6.179-32.244,0.04-36.437,1.108
		C436.592,47.84,446.259,53.344,447.831,58.853z"/>
	<path fill="#494949" d="M509.275,136.29c2.104-5.471,6.313-30.301-9.259-33.247c-15.571-2.946-39.139-4.208-36.192-4.208
		c0,0-14.31-11.784-20.622-5.892c-6.313,5.892-7.575,20.201-12.206,28.196c-4.629,7.996-10.1,21.884-6.732,23.147
		s16.413-8.838,16.835-13.467c0.42-4.629-3.79-23.988,2.945-21.884c6.734,2.104,15.572,4.209,21.042,10.941
		c5.471,6.734,14.729,13.047,19.78,14.309C489.917,135.448,507.172,141.76,509.275,136.29z"/>
</g>
</svg>
