<?xml version="1.0" encoding="utf-8"?>
<!-- Generator: Adobe Illustrator 16.0.1, SVG Export Plug-In . SVG Version: 6.00 Build 0)  -->
<!DOCTYPE svg PUBLIC "-//W3C//DTD SVG 1.1//EN" "http://www.w3.org/Graphics/SVG/1.1/DTD/svg11.dtd">
<svg version="1.1"
	 id="svg2" inkscape:version="0.48.4 r9939" sodipodi:docname="nicki.svg" xmlns:cc="http://creativecommons.org/ns#" xmlns:rdf="http://www.w3.org/1999/02/22-rdf-syntax-ns#" xmlns:dc="http://purl.org/dc/elements/1.1/" xmlns:sodipodi="http://sodipodi.sourceforge.net/DTD/sodipodi-0.dtd" xmlns:inkscape="http://www.inkscape.org/namespaces/inkscape" xmlns:svg="http://www.w3.org/2000/svg"
	 xmlns="http://www.w3.org/2000/svg" xmlns:xlink="http://www.w3.org/1999/xlink" x="0px" y="0px" width="621px" height="600px"
	 viewBox="0 0 621 600" enable-background="new 0 0 621 600" xml:space="preserve">
<defs>
	
	
		<inkscape:path-effect  vertical_pattern="false" id="path-effect3866" spacing="0" copytype="single_stretched" prop_scale="1" normal_offset="0" pattern="M 0,0 1,0" tang_offset="0" scale_y_rel="false" prop_units="false" fuse_tolerance="0" effect="skeletal" is_visible="true">
		</inkscape:path-effect>
	
		<inkscape:path-effect  vertical_pattern="false" id="path-effect3862" spacing="0" copytype="single_stretched" prop_scale="1" normal_offset="0" pattern="M 0,0 1,0" tang_offset="0" scale_y_rel="false" prop_units="false" fuse_tolerance="0" effect="skeletal" is_visible="true">
		</inkscape:path-effect>
</defs>
<sodipodi:namedview  inkscape:pageshadow="2" inkscape:window-maximized="1" inkscape:pageopacity="0.0" inkscape:document-units="px" inkscape:window-x="0" inkscape:window-width="1680" inkscape:current-layer="layer1" inkscape:window-height="994" inkscape:window-y="27" id="base" showgrid="false" inkscape:cy="269.55114" inkscape:cx="497.69313" bordercolor="#666666" borderopacity="1.0" inkscape:zoom="0.98994949" pagecolor="#ffffff">
	</sodipodi:namedview>
<g>
	<defs>
		<circle id="SVGID_1_" cx="310.5" cy="300" r="297.453"/>
	</defs>
	<clipPath id="SVGID_2_">
		<use xlink:href="#SVGID_1_"  overflow="visible"/>
	</clipPath>
	<g clip-path="url(#SVGID_2_)">
		<path fill="#318064" d="M632.289,1.64H-14.176v601.813h646.465c1.594,0,2.886-1.291,2.886-2.885V4.525
			C635.175,2.931,633.883,1.64,632.289,1.64z M27.702,602.517c0.596-1.488,20.832-22.616,27.378-28.567
			c6.546-5.952,33.627-26.484,34.52-28.866c0.893-2.382,2.679-27.08,5.356-33.627c2.679-6.547,13.094-32.139,13.094-32.139
			s10.117-29.759,10.321-30.735c0,0,7.997-24.83,7.997-31.144c0-5.398,9.232-20.644,11.904-24.942
			c-3.383-0.411-7.789-1.016-12.503-1.664c-5.689-0.322-11.683-0.824-14.551-1.591c-1.516-0.403-4.62-0.81-8.604-1.349
			c-1.721-0.166-3.232-0.284-4.442-0.334c-5.031-0.21-13.302-1.987-20.958-4.446c-5.521-1.568-10.648-3.594-14.468-6.249
			c-1.221-0.787-2.205-1.577-2.87-2.352c-10.003-10.005-12.508-20.663-17.271-33.984c-0.414-0.928-0.832-1.979-1.175-3.196
			c-0.295-0.786-0.595-1.574-0.913-2.38c-6.312-15.992,8.838-30.722,10.941-35.351c1.355-2.979,23.962-30.522,40.924-52.029
			l18.837-26.249c0,0,0.023-0.019,0.029-0.023c0.232-0.822,0.394-1.736,0.488-2.73c-0.075-0.032-0.117-0.089-0.097-0.192
			c0.42-2.104-3.367-20.201-5.892-28.618c-1.132-3.774-1.33-7.38-1.132-11.12c-0.23-7.234,0.711-16.977,0.711-19.181
			c0-2.549-2.829-19.89-0.872-29.158c0.012-0.103,0.017-0.199,0.029-0.302c1.683-13.888,14.309-17.254,24.409-27.776
			c0.728-0.758,1.507-1.452,2.312-2.114c2.145-2.311,4.096-4.578,5.686-6.724c8.417-11.362-2.105-32.825,0.841-39.138
			c2.945-6.312,11.784-9.679,19.779-20.201c7.997-10.521,16.414-13.046,24.41-17.255c7.996-4.209,15.15-6.313,26.934-5.892
			c11.784,0.42,24.409-2.525,24.409-2.525s20.306-1.324,29.233-1.324c8.928,0,25.294-1.488,33.626-2.678
			c8.333-1.191,31.842,2.082,50.589,10.117s52.077,26.188,57.732,31.545c5.653,5.356,22.318,3.57,38.686,0.595
			c16.366-2.975,30.65,11.011,27.675,18.153c-2.976,7.142,3.571,19.641,10.713,25.294c7.143,5.655,22.617,19.641,23.807,41.96
			c1.191,22.318,3.273,34.221,16.367,49.398s14.88,24.997,17.855,30.056c2.975,5.06,13.689,17.855,16.665,28.866
			c2.976,11.011-2.678,29.759-4.761,35.71c-2.084,5.952-0.895,18.748-1.785,23.211c-0.893,4.463-12.5,9.225-15.475,10.712
			c-2.978,1.489-18.451-6.249-23.511-16.962c-5.059-10.713-10.712-22.914-13.688-26.783c-2.978-3.869-6.846-14.878-9.523-19.64
			c-2.679-4.761-0.893-20.534-3.274-25.295c-2.379-4.761-7.143,2.083-13.391-2.083c-6.249-4.166-7.439-5.356-7.736-3.272
			c-0.298,2.083,0.595,21.127,2.678,30.353s8.63,12.201,14.283,19.938c5.655,7.738,20.534,28.271,25.593,35.116
			c5.059,6.844,23.212,28.27,29.163,38.983c5.951,10.713,19.641,65.767,24.997,86.895c5.356,21.129,5.654,11.011,3.274,20.235
			c-2.381,9.227,3.867,36.009,13.688,66.957c9.821,30.949,15.178,29.164,24.402,45.232c9.226,16.07,31.545,43.149,31.545,43.149
			S27.108,604.005,27.702,602.517z"/>
		<path fill="#2A2A2A" d="M123.557,218.482c-4.841,5.689-11.782,11.481-17.969,18.57c2.649-2.201,5.635-4.373,8.997-7.733
			C118.276,225.627,121.329,221.677,123.557,218.482z"/>
		<path fill="#2A2A2A" d="M124.995,211.964c1.458-0.625,2.715-0.954,2.815-0.162C128.721,210.425,127.314,210.836,124.995,211.964z"
			/>
		<path fill="#2A2A2A" d="M96.062,250.672c-4.878,8.645-7.571,15.866-13.041,20.311c-2.561,2.08-5.18,3.551-7.076,4.878
			c2.368-1.313,6.037-2.995,10.022-6.141C93.669,263.64,92.405,260.662,96.062,250.672z"/>
		<path fill="#2A2A2A" d="M73.762,279.82c-0.297-0.396-0.456-0.748-0.509-1.077c-0.354,1.216,0.329,2.587,2.613,4.443
			c6.734,5.471,21.043,9.258,28.197,8.417c0.294-0.035,0.628-0.071,0.953-0.107c-6.318-0.509-13.841-1.915-16.104-2.417
			C85.125,288.237,76.288,283.188,73.762,279.82z"/>
		<path fill="#2A2A2A" d="M211.801,245.311c-0.131-0.219-0.271-0.466-0.411-0.721c0.826,3.427,2.063,6.07,6.303,7.033
			c1.524,0.347,3.141,0.289,4.808-0.023C216.894,251.705,213.494,248.133,211.801,245.311z"/>
		<path fill="#2A2A2A" d="M182.341,229.74c-2.122,0.816-4.878,2.778-7.676,5.235c2.508-2.096,5-3.681,7.256-4.394
			c4.605-1.455,9.35-4.161,13.993-4.508C191.51,225.868,186.451,228.16,182.341,229.74z"/>
		<path fill="#2A2A2A" d="M133.721,284.874c-6.053,2.537-15.661,3.753-18.887,5.454
			C121.693,289.359,129.341,287.778,133.721,284.874z"/>
		<path fill="#2A2A2A" d="M111.217,389.241c2.869,0.767,8.862,1.269,14.551,1.591c-8.06-1.109-16.989-2.343-23.155-2.939
			C106.597,388.432,109.702,388.838,111.217,389.241z"/>
		<path fill="#2A2A2A" d="M576.746,514.432c-9.821-30.947-16.068-57.73-13.688-66.957c2.38-9.225,2.082,0.894-3.274-20.235
			c-5.356-21.128-19.045-76.182-24.996-86.895c-5.952-10.714-24.105-32.14-29.164-38.983c-5.058-6.845-19.938-27.378-25.592-35.116
			c-5.653-7.737-12.201-10.712-14.284-19.938s-2.976-28.271-2.677-30.353c0.296-2.083,1.486-0.893,7.735,3.272
			c6.249,4.167,11.012-2.679,13.392,2.083c2.381,4.761,0.595,20.534,3.273,25.295c2.678,4.761,6.546,15.771,9.523,19.64
			c2.976,3.87,8.629,16.07,13.688,26.783c5.06,10.713,20.533,18.451,23.511,16.962c2.975-1.486,14.581-6.249,15.475-10.712
			c0.892-4.463-0.299-17.259,1.785-23.211c2.083-5.951,7.736-24.699,4.761-35.71c-2.976-11.011-13.69-23.807-16.665-28.867
			c-2.976-5.058-4.761-14.878-17.855-30.055c-13.094-15.178-15.177-27.08-16.367-49.398c-1.189-22.32-16.664-36.306-23.807-41.96
			s-13.688-18.153-10.713-25.294c2.976-7.143-11.309-21.129-27.675-18.153c-16.366,2.976-33.032,4.761-38.686-0.595
			c-5.655-5.357-38.984-23.509-57.732-31.545s-42.257-11.31-50.59-10.118c-8.333,1.19-24.699,2.678-33.626,2.678
			c-8.927,0-29.233,1.325-29.233,1.325s-12.626,2.946-24.409,2.524c-11.784-0.42-18.938,1.684-26.934,5.893
			c-7.996,4.208-16.414,6.733-24.41,17.255c-7.997,10.52-16.835,13.886-19.779,20.2c-2.946,6.313,7.575,27.776-0.841,39.138
			c-1.59,2.146-3.541,4.413-5.686,6.724c10.358-8.519,26.522-9.37,34.724-10.932c8.838-1.683,30.722,3.787,45.873,5.049
			c15.15,1.263,5.049-11.363,19.358-24.409c14.309-13.046,13.047,0,26.935,4.209c13.887,4.208,14.729,16.833,18.938,29.459
			c4.208,12.625,6.312,19.359,14.308,26.935c7.995,7.575,15.571,11.784,21.465,20.201c5.891,8.417-8.839,2.946-17.676,10.942
			c-8.838,7.996,0.421,10.1,13.046,15.15c12.626,5.051,1.263,8.417-7.995,16.414c-9.259,7.997-4.629,5.471,3.787,10.521
			c8.418,5.05-3.787,6.734-10.941,11.785c-7.154,5.05-22.306,5.05-34.931,9.258c-12.625,4.208-6.733,21.883-9.68,20.2
			c-2.745-1.568-4.033-3.498-13.727,2.033c4.58-2.018,8.856-3.487,12.044-1.612c7.153,4.209,9.68,14.309,21.463,12.626
			c11.784-1.683,39.98-2.525,49.66-2.525c9.681,0,34.089,2.104,41.665,5.893c7.577,3.787,18.938,12.204,20.621,5.47
			c1.685-6.733-0.42-14.729-7.154-23.988c-6.732-9.258-12.625-20.201-11.362-24.83c1.263-4.629,10.942-10.1,19.359-3.367
			c8.417,6.734,31.144,3.367,30.723,15.992c-0.422,12.626,7.152,31.985,1.684,39.559c-5.472,7.575-9.259,11.784-10.101,23.568
			c-0.843,11.784-1.263,21.884-10.522,35.772c-9.259,13.888-9.259,23.147-11.783,35.35c-2.525,12.207-1.263,34.511-8.839,44.611
			c-7.574,10.101-3.367,20.201-8.837,25.25c-5.471,5.051,3.789,13.048-2.946,17.256s-20.622,14.308-26.935,14.308
			c-6.313,0-18.097,4.63-30.723,2.104c-12.625-2.525-15.992-2.525-26.513,0.842s-20.622-6.312-15.151-12.204
			s23.147-22.307,27.776-26.513c4.629-4.21,17.254-23.147,18.517-29.04c1.263-5.892,16.412-21.884,16.412-30.723
			c0-8.837,6.313-23.987,6.313-32.824c0-8.84-3.367-21.042-14.308-20.202c-10.942,0.842-23.147,4.63-31.564,9.68
			c-8.418,5.05-18.939,13.048-26.093,18.938s-25.672,25.671-34.089,30.723c-8.417,5.051-29.459,9.68-37.035,12.204
			c-7.574,2.525-37.875,3.788-42.926,3.788c-1.012,0-3.068-0.206-5.772-0.532c-2.672,4.298-11.903,19.543-11.903,24.942
			c0,6.312-7.997,31.144-7.997,31.144c-0.205,0.978-10.321,30.735-10.321,30.735s-10.416,25.592-13.094,32.139
			c-2.678,6.548-4.463,31.245-5.356,33.627c-0.893,2.382-27.973,22.914-34.52,28.866c-6.546,5.951-26.782,27.079-27.378,28.567
			c-0.595,1.487,604.99,0.297,604.99,0.297s-22.318-27.079-31.545-43.149C591.924,543.596,586.567,545.381,576.746,514.432z
			 M264.828,355.995c4.208-2.104,6.732-2.104,4.628-4.629c-2.104-2.526,2.104-12.205,5.472-12.205c0,0,15.15,5.891,13.887,10.521
			s-3.367,23.989-7.996,23.566c-4.628-0.421-7.153-1.263-10.521-0.421c-3.367,0.844-8.838,4.63-8.838,0
			C261.46,368.198,260.619,358.098,264.828,355.995z M205.488,495.296c0,5.891-7.576,37.455-10.101,46.293
			c-2.525,8.837-18.097,31.564-23.567,36.612c-5.471,5.05-22.726,13.469-31.564,16.835s-21.042-1.263-24.83-2.946
			c-3.788-1.684-17.255-6.312-21.464-9.68c-4.209-3.368-6.312-11.362-6.312-18.097s4.209-26.092,4.209-34.931
			c0-8.838,6.733-25.671,10.521-32.404s13.887-36.193,15.992-45.03c2.104-8.838,24.409-58.078,24.409-58.078
			s11.362,2.105,19.779,0.421c8.417-1.684,31.144-4.629,37.457-7.154c6.312-2.525,26.091-9.258,30.301-13.889
			c4.208-4.63,30.722-29.039,30.722-29.039s-6.733,17.256-10.1,20.202c-3.367,2.945-18.518,44.609-21.463,50.923
			c-2.947,6.312-12.626,39.561-13.888,44.609C214.326,464.993,205.488,489.404,205.488,495.296z M231.581,429.223
			c-1.683,4.209-2.104,6.312-4.629,7.153c-2.525,0.843-4.209,0.843-4.209,0.843l4.209-11.784
			C226.951,425.435,233.264,425.014,231.581,429.223z M250.098,412.387c0,0-5.471,5.471-7.997,7.997
			c-2.524,2.525-3.787,6.733-7.576,4.209c-3.787-2.525-5.89-5.892-2.104-8.838c3.789-2.945,2.525-11.784,5.893-11.784
			c3.366,0,7.575-4.629,9.679-2.104C250.098,404.391,255.148,406.076,250.098,412.387z M248.835,392.607
			c2.525-2.945,3.787-8.416,5.892-13.467c2.103-5.05,3.367-2.104,6.312-1.262c2.948,0.841,3.789-4.631,8.417-3.788
			c4.63,0.841,2.104,9.68,2.104,9.68h0.001c0,0-13.047,17.254-18.518,17.254C247.573,401.024,246.31,395.554,248.835,392.607z
			 M508.919,186.813c0,11.785-7.153,11.785-11.362,9.68s-4.209-7.575-5.05-19.78c-0.843-12.204-10.521-13.467-14.729-25.671
			c-1.25-3.625-1.009-5.833-0.061-7.154h-2.466h2.466c2.244-3.126,8.478-1.263,8.478-1.263s9.259,2.104,16.412,13.047
			C509.761,166.612,508.919,175.029,508.919,186.813z M422.823,50.725c4.192-1.068,29.872-7.287,36.437-1.108
			c7.152,6.733,12.205,8.838,10.942,15.15s1.683,15.15,2.945,20.621c1.263,5.471-9.68,3.367-18.518-3.787
			c-8.837-7.155-15.571-14.309-17.255-20.201C435.803,55.891,426.136,50.387,422.823,50.725c-0.377,0.096-0.599,0.155-0.599,0.155
			C422.39,50.797,422.593,50.748,422.823,50.725z M454.63,122.423c-5.469-6.734-14.308-8.838-21.042-10.942
			c-6.735-2.103-2.525,17.255-2.945,21.884c-0.422,4.629-13.469,14.729-16.835,13.467c-3.367-1.262,2.104-15.15,6.732-23.147
			c4.63-7.997,5.893-22.305,12.206-28.196c6.312-5.891,20.622,5.892,20.622,5.892c-2.946,0,20.621,1.261,36.192,4.208
			c15.572,2.946,11.363,27.776,9.259,33.247c-2.104,5.471-19.358-0.842-24.409-2.104C469.359,135.47,460.101,129.157,454.63,122.423
			z"/>
		<path fill="#2A2A2A" d="M77.213,383.112c-5.69-1.827-11.035-4.029-14.468-6.249C66.565,379.519,71.691,381.544,77.213,383.112z"/>
		<path fill="#2A2A2A" d="M158.773,254.99c0.246-0.489,0.515-0.998,0.804-1.519c-5.423,7.574-14.339,19.166-19.032,25.304
			C147.349,271.754,155.635,261.268,158.773,254.99z"/>
		<path fill="#2A2A2A" d="M104.455,130.301c-1.958,9.268,0.872,26.608,0.872,29.158c0,2.204-0.941,11.947-0.711,19.181
			c0.244-4.6,1.089-9.402,1.552-14.974C107.002,153.641,102.869,144.024,104.455,130.301z"/>
		<path fill="#2A2A2A" d="M111.735,218.569c-0.094,0.996-0.254,1.909-0.488,2.73c0.269-0.214,6.267-4.998,10.065-7.409
			C117.124,216.17,112.436,218.873,111.735,218.569z"/>
		<path fill="#2A2A2A" d="M42.603,340.53c4.763,13.318,7.268,23.977,17.271,33.981c-5.049-5.892-14.729-25.25-15.571-29.88
			C44.101,343.519,43.361,342.229,42.603,340.53z"/>
		<path fill="#2A2A2A" d="M51.036,304.23c17.676-28.197,34.51-47.136,34.51-47.136l6.834-9.523
			c-16.961,21.507-39.569,49.051-40.924,52.029c-2.104,4.629-17.255,19.358-10.941,35.351c0.317,0.806,0.616,1.594,0.912,2.38
			C39.791,331.513,39.935,321.94,51.036,304.23z"/>
		<path fill="#494949" d="M121.312,213.89c0.635-0.403,1.215-0.749,1.689-0.985c0.646-0.323,1.339-0.662,1.993-0.941
			c2.321-1.129,3.726-1.54,2.815-0.162c0.088,0.701-0.73,2.278-3.124,5.312c-0.36,0.456-0.739,0.911-1.128,1.368
			c-2.229,3.195-5.281,7.145-8.972,10.837c-3.362,3.36-6.346,5.533-8.997,7.733c-2.024,2.321-3.972,4.775-5.733,7.417
			c-1.422,2.133-2.666,4.206-3.793,6.203c-3.657,9.99-2.393,12.967-10.096,19.047c-3.984,3.146-7.653,4.828-10.022,6.141
			c-1.398,0.979-2.399,1.878-2.692,2.883c0.054,0.329,0.212,0.681,0.509,1.077c2.524,3.367,11.362,8.416,15.15,9.258
			c2.263,0.503,9.786,1.906,16.104,2.417c2.589-0.29,6.071-0.64,9.818-1.169c3.226-1.7,12.833-2.916,18.887-5.454
			c0.213-0.142,0.447-0.275,0.644-0.424c1.712-1.285,3.861-3.278,6.181-5.673c4.693-6.138,13.609-17.731,19.032-25.304
			c3.271-5.904,9.226-13.599,15.086-18.498c2.799-2.457,5.555-4.419,7.677-5.235c4.109-1.581,9.169-3.873,13.573-3.667
			c3.417-0.258,6.783,0.761,9.994,4.508c4.106,4.791,4.505,9.95,5.481,14.009c0.141,0.253,0.28,0.502,0.412,0.721
			c1.693,2.823,5.091,6.395,10.699,6.289c3.946-0.736,8.183-2.914,12.187-4.678c9.694-5.53,10.981-3.601,13.727-2.033
			c2.947,1.683-2.947-15.991,9.68-20.2c12.625-4.209,27.776-4.209,34.931-9.258c7.153-5.05,19.359-6.734,10.941-11.785
			c-8.416-5.049-13.047-2.524-3.788-10.521c9.259-7.997,20.622-11.363,7.996-16.414c-12.625-5.05-21.884-7.154-13.046-15.15
			c8.837-7.997,23.566-2.526,17.676-10.942c-5.893-8.417-13.47-12.626-21.465-20.201c-7.996-7.575-10.101-14.309-14.308-26.935
			c-4.209-12.625-5.05-25.251-18.938-29.459c-13.889-4.208-12.626-17.255-26.935-4.209c-14.308,13.047-4.209,25.672-19.358,24.409
			c-15.15-1.262-37.035-6.733-45.873-5.05c-8.202,1.563-24.365,2.412-34.724,10.933c-0.804,0.662-1.584,1.356-2.312,2.114
			c-10.1,10.521-22.726,13.888-24.409,27.776c-0.012,0.103-0.018,0.201-0.029,0.302c-1.586,13.724,2.548,23.34,1.713,33.366
			c-0.465,5.572-1.309,10.374-1.552,14.974c-0.199,3.74,0,7.346,1.132,11.12c2.524,8.417,6.312,26.514,5.892,28.618
			c-0.021,0.104,0.022,0.16,0.097,0.192C112.436,218.873,117.124,216.17,121.312,213.89z M284.187,170.822
			c5.049,3.367,17.253,10.521,17.253,10.521c-5.469,6.733-22.306,8.838-28.196,9.258c-5.892,0.42-29.04-3.367-31.144-3.367
			s1.263-6.312,1.263-6.312s2.946-3.367,13.888-11.362C268.194,161.562,279.136,167.454,284.187,170.822z M221.06,125.79
			c5.471-7.575,14.728-20.621,22.726-18.938c7.996,1.684,15.571,1.264,21.043,7.576c5.471,6.312,14.307,14.729,7.153,16.833
			c-7.153,2.104-15.57,7.155-20.201,12.206c0,0-5.049,5.47-14.308,8.838c-9.259,3.368-12.206,7.575-16.834,1.263
			C216.009,147.253,215.588,133.366,221.06,125.79z M120.056,166.191c-9.258,0.42-11.363-11.785-11.363-15.993
			c0-4.207-1.262-4.628,6.312-7.154c7.575-2.525,16.413,13.047,16.413,13.047C132.681,160.72,129.314,165.771,120.056,166.191z
			 M145.728,100.119c5.05,0,13.045-5.893,16.833-2.525c3.788,3.368,7.996,21.884,5.891,28.618
			c-2.104,6.734-9.679,16.834-15.571,19.78c0,0-13.887,0.841-17.676-6.313c-3.788-7.154-10.521-14.309-7.154-21.463
			C131.418,111.061,140.676,100.119,145.728,100.119z"/>
		<path fill="#B7741A" d="M257.252,169.559c-10.942,7.996-13.888,11.362-13.888,11.362s-3.367,6.312-1.263,6.312
			s25.251,3.788,31.144,3.368c5.89-0.42,22.727-2.525,28.196-9.258c0,0-12.205-7.154-17.253-10.521
			C279.136,167.454,268.194,161.562,257.252,169.559z M294.708,183.867c-2.104,2.104-14.73,2.525-22.306,2.104
			c-7.574-0.421-10.942-7.575-12.205-10.942c-1.263-3.368,9.258-6.312,9.258-6.312C282.503,165.771,296.812,181.763,294.708,183.867
			z"/>
		<path fill="#B67E1A" d="M115.005,143.044c-7.576,2.526-6.312,2.946-6.312,7.154c0,4.209,2.104,16.414,11.363,15.993
			c9.258-0.421,12.625-5.471,11.362-10.1C131.418,156.091,122.581,140.52,115.005,143.044z M118.162,158.827
			c0,0-7.365-8.207-4.208-10.731c3.156-2.524,10.1-2.735,12.204,1.473C128.262,153.777,125.948,161.983,118.162,158.827z"/>
		<path fill="#CF9636" d="M260.198,175.029c1.263,3.368,4.63,10.521,12.205,10.942c7.575,0.42,20.202,0,22.306-2.104
			c2.104-2.104-12.205-18.096-25.252-15.15C269.456,168.717,258.935,171.662,260.198,175.029z M271.561,173.556
			c1.895-2.524,4.63,0.42,4.63,1.263c0,0.841-0.21,1.893-2.736,2.946C273.455,177.765,269.667,176.081,271.561,173.556z"/>
		<path fill="#16001A" d="M273.455,177.765c2.526-1.052,2.736-2.104,2.736-2.946c0-0.842-2.736-3.788-4.63-1.263
			C269.667,176.081,273.455,177.765,273.455,177.765z"/>
		<path fill="#CDA055" d="M113.954,148.095c-3.156,2.525,4.208,10.731,4.208,10.731c7.786,3.156,10.1-5.051,7.996-9.259
			C124.054,145.36,117.109,145.57,113.954,148.095z M124.054,152.935c0,0-6.734-2.104-5.681-4.209
			c1.053-2.104,6.102-0.631,6.944,1.684C126.158,152.724,124.054,152.935,124.054,152.935z"/>
		<path fill="#16001A" d="M118.373,148.726c-1.052,2.104,5.681,4.209,5.681,4.209s2.104-0.21,1.263-2.524
			C124.475,148.095,119.424,146.623,118.373,148.726z"/>
		<path fill="#CE9A4B" d="M237.473,152.304c9.258-3.368,14.308-8.838,14.308-8.838c4.629-5.051,13.047-10.1,20.201-12.206
			c7.154-2.104-1.683-10.521-7.153-16.833c-5.471-6.312-13.047-5.892-21.043-7.576c-7.997-1.683-17.254,11.363-22.726,18.938
			c-5.473,7.576-5.05,21.463-0.422,27.776C225.268,159.879,228.213,155.671,237.473,152.304z"/>
		<path fill="#CE9A4B" d="M135.206,139.678c3.788,7.154,17.676,6.313,17.676,6.313c5.892-2.946,13.468-13.047,15.571-19.78
			c2.104-6.732-2.104-25.25-5.891-28.618c-3.788-3.367-11.784,2.525-16.833,2.525c-5.051,0-14.31,10.941-17.677,18.096
			C124.685,125.369,131.418,132.524,135.206,139.678z"/>
		<path fill="#CE9A4B" d="M186.97,389.241c7.576-2.524,28.618-7.153,37.035-12.204s26.935-24.831,34.089-30.723
			s17.675-13.888,26.093-18.938c8.417-5.05,20.621-8.838,31.564-9.68c10.941-0.841,14.308,11.362,14.308,20.202
			c0,8.837-6.313,23.987-6.313,32.824c0,8.839-15.149,24.829-16.412,30.723s-13.887,24.83-18.517,29.04
			c-4.629,4.207-22.305,20.621-27.776,26.513c-5.47,5.891,4.63,15.57,15.151,12.204c10.521-3.367,13.887-3.367,26.513-0.842
			c12.626,2.526,24.408-2.104,30.723-2.104c6.313,0,20.2-10.1,26.935-14.308s-2.525-12.205,2.946-17.256
			c5.471-5.049,1.263-15.149,8.837-25.25c7.576-10.101,6.313-32.405,8.839-44.611c2.524-12.203,2.524-21.462,11.782-35.35
			c9.26-13.887,9.68-23.987,10.523-35.772c0.842-11.785,4.629-15.993,10.101-23.568c5.469-7.575-2.105-26.934-1.685-39.559
			c0.422-12.625-22.305-9.258-30.722-15.992c-8.417-6.733-18.097-1.263-19.359,3.367c-1.263,4.629,4.63,15.572,11.362,24.83
			c6.734,9.259,8.839,17.255,7.154,23.988c-1.683,6.734-13.045-1.684-20.621-5.47c-7.575-3.788-31.985-5.893-41.665-5.893
			s-37.876,0.842-49.66,2.525c-11.784,1.683-14.309-8.417-21.463-12.626c-3.188-1.875-7.464-0.406-12.044,1.612
			c-4.004,1.763-8.24,3.941-12.187,4.678c-1.667,0.312-3.284,0.37-4.808,0.023c-4.24-0.963-5.477-3.606-6.303-7.033
			c-0.977-4.059-1.375-9.218-5.481-14.01c-3.212-3.749-6.577-4.766-9.994-4.508c-4.644,0.349-9.388,3.054-13.994,4.508
			c-2.256,0.712-4.749,2.297-7.255,4.394c-5.863,4.899-11.817,12.593-15.088,18.498c-0.289,0.521-0.559,1.028-0.804,1.519
			c-3.138,6.276-11.424,16.764-18.228,23.787c-2.321,2.395-4.468,4.389-6.181,5.673c-0.197,0.148-0.43,0.282-0.644,0.424
			c-4.379,2.904-12.026,4.484-18.887,5.454c-3.747,0.529-7.229,0.88-9.818,1.169c-0.325,0.037-0.659,0.074-0.953,0.107
			c-7.155,0.841-21.464-2.946-28.197-8.417c-2.284-1.855-2.966-3.227-2.613-4.443c0.293-1.005,1.294-1.905,2.692-2.883
			c1.896-1.326,4.515-2.798,7.076-4.878c5.47-4.444,8.163-11.667,13.041-20.311c1.127-1.997,2.371-4.07,3.793-6.203
			c1.761-2.643,3.708-5.096,5.733-7.417c6.187-7.089,13.128-12.882,17.969-18.57c0.389-0.457,0.768-0.912,1.128-1.368
			c2.394-3.034,3.212-4.612,3.124-5.312c-0.1-0.792-1.357-0.463-2.815,0.162c-0.654,0.28-1.346,0.618-1.993,0.941
			c-0.474,0.236-1.054,0.582-1.689,0.985c-3.798,2.411-9.796,7.194-10.065,7.409c-0.006,0.005-0.029,0.023-0.029,0.023
			L92.38,247.574l-6.834,9.523c0,0-16.833,18.938-34.51,47.136c-11.103,17.709-11.246,27.282-9.609,33.102
			c0.343,1.218,0.762,2.269,1.174,3.197c0.759,1.7,1.498,2.99,1.7,4.104c0.841,4.629,10.521,23.986,15.571,29.879
			c0.665,0.774,1.65,1.565,2.87,2.353c3.434,2.22,8.778,4.421,14.468,6.249c7.656,2.459,15.927,4.236,20.958,4.446
			c1.21,0.05,2.721,0.168,4.442,0.334c6.166,0.597,15.096,1.83,23.155,2.94c4.715,0.647,9.121,1.252,12.503,1.663
			c2.703,0.327,4.759,0.531,5.772,0.531C149.094,393.029,179.395,391.767,186.97,389.241z M92.7,373.671
			c-2.524,0.841-13.887-0.843-18.518-3.368c-4.629-2.524-15.151-8.416-18.938-12.205c-3.788-3.786-6.734-16.833-9.68-19.779
			c-2.946-2.946-2.525-9.26-2.525-15.992s7.154-10.941,13.046-19.358c5.893-8.418,14.309-6.734,24.409-6.734
			c10.1,0,14.309,1.683,27.355,5.892c13.046,4.208,21.042,11.363,21.042,11.363c1.683,1.684,6.734,8.837,6.734,14.729
			c0,5.891-5.051,26.513-10.521,29.879C119.635,361.466,95.226,372.828,92.7,373.671z"/>
		<path fill="#3F3F3F" d="M135.627,328.219c0-5.891-5.051-13.046-6.734-14.729c0,0-7.997-7.155-21.042-11.363
			c-13.047-4.209-17.254-5.892-27.355-5.892c-10.102,0-18.518-1.683-24.409,6.734c-5.892,8.416-13.046,12.626-13.046,19.359
			c0,6.732-0.42,13.047,2.525,15.99c2.946,2.947,5.892,15.993,9.68,19.781c3.787,3.788,14.309,9.68,18.938,12.204
			c4.629,2.526,15.992,4.21,18.517,3.369c2.526-0.843,26.935-12.206,32.406-15.572C130.577,354.731,135.627,334.11,135.627,328.219z
			 M54.825,347.155c-4.209,0.422-4.629-5.049-6.312-8.416c-1.684-3.367-2.946-6.312,2.104-7.995
			c5.05-1.686,9.258,10.521,9.258,10.521S59.032,346.735,54.825,347.155z M109.535,357.678c0,0-12.205,4.209-18.518,2.525
			c-6.314-1.683-10.101-5.892-10.522-10.942c-0.42-5.051,2.104-6.734,7.576-9.258c5.47-2.524,13.887,0.84,13.887,5.049
			c0,4.207,8.417,8.838,8.417,8.838L109.535,357.678z"/>
		<path d="M101.959,345.052c0-4.209-8.417-7.573-13.887-5.048c-5.471,2.523-7.997,4.207-7.575,9.258
			c0.421,5.05,4.208,9.26,10.521,10.942c6.312,1.684,18.518-2.526,18.518-2.526l0.841-3.786
			C110.376,353.891,101.959,349.261,101.959,345.052z"/>
		<path d="M50.616,330.744c-5.05,1.683-3.788,4.629-2.104,7.995c1.683,3.367,2.104,8.838,6.312,8.416
			c4.208-0.42,5.049-5.891,5.049-5.891S55.666,329.059,50.616,330.744z"/>
		<path fill="#CEA9BD" d="M250.939,364.411c3.368-2.945,10.1-20.201,10.1-20.201s-26.514,24.409-30.722,29.04
			c-4.209,4.63-23.988,11.363-30.301,13.888c-6.312,2.525-29.039,5.47-37.457,7.155c-8.417,1.684-19.779-0.423-19.779-0.423
			s-22.306,49.241-24.409,58.079c-2.105,8.837-12.205,38.297-15.992,45.03c-3.787,6.733-10.521,23.566-10.521,32.404
			c0,8.839-4.209,28.196-4.209,34.931s2.104,14.729,6.312,18.097c4.208,3.367,17.676,7.996,21.464,9.68
			c3.787,1.684,15.992,6.312,24.83,2.946c8.838-3.366,26.092-11.785,31.564-16.835c5.471-5.048,21.043-27.775,23.567-36.613
			c2.525-8.837,10.101-40.401,10.101-46.293c0-5.891,8.837-30.302,10.1-35.352c1.263-5.049,10.943-38.298,13.888-44.609
			C232.421,409.022,247.573,367.356,250.939,364.411z"/>
		<path fill="#FFFFFF" d="M226.951,425.435l-4.209,11.784c0,0,1.684,0,4.209-0.843c2.525-0.842,2.947-2.945,4.629-7.153
			C233.264,425.014,226.951,425.435,226.951,425.435z"/>
		<path fill="#FFFFFF" d="M247.994,401.867c-2.104-2.525-6.312,2.105-9.679,2.105c-3.368,0-2.104,8.837-5.893,11.783
			c-3.787,2.946-1.683,6.312,2.104,8.838c3.79,2.525,5.051-1.685,7.576-4.21c2.525-2.525,7.997-7.995,7.997-7.995
			C255.148,406.076,250.098,404.393,247.994,401.867z"/>
		<path fill="#FFFFFF" d="M271.562,383.771L271.562,383.771c-0.001,0,2.525-8.837-2.104-9.68c-4.628-0.843-5.47,4.63-8.417,3.789
			c-2.946-0.842-4.208-3.789-6.312,1.262c-2.104,5.052-3.367,10.521-5.892,13.468c-2.525,2.946-1.263,8.417,4.208,8.417
			C258.517,401.026,271.562,383.771,271.562,383.771z"/>
		<path fill="#FFFFFF" d="M270.299,372.828c3.368-0.842,5.892,0,10.521,0.42c4.63,0.423,6.733-18.937,7.996-23.565
			s-13.887-10.521-13.887-10.521c-3.368,0-7.575,9.68-5.472,12.206c2.104,2.524-0.42,2.524-4.628,4.63
			c-4.209,2.104-3.368,12.204-3.368,16.833C261.461,377.458,266.932,373.671,270.299,372.828z"/>
		<line fill="none" x1="477.718" y1="143.887" x2="475.252" y2="143.887"/>
		<path fill="#CE9A4B" d="M486.193,142.624c0,0-6.231-1.864-8.478,1.263c-0.947,1.321-1.189,3.529,0.062,7.154
			c4.209,12.204,13.887,13.467,14.729,25.671c0.842,12.205,0.842,17.676,5.05,19.779c4.208,2.104,11.362,2.105,11.362-9.68
			c0-11.784,0.842-20.201-6.312-31.142C495.453,144.729,486.193,142.624,486.193,142.624z"/>
		<path fill="#494949" d="M422.225,50.879c0,0,0.222-0.059,0.599-0.155C422.593,50.748,422.39,50.797,422.225,50.879z"/>
		<path fill="#494949" d="M437.375,61.4c1.684,5.892,8.418,13.046,17.255,20.201c8.838,7.154,19.78,9.258,18.518,3.787
			c-1.263-5.471-4.208-14.308-2.945-20.621s-3.79-8.417-10.942-15.15c-6.564-6.179-32.244,0.04-36.437,1.108
			C426.136,50.387,435.803,55.891,437.375,61.4z"/>
		<path fill="#494949" d="M498.819,138.836c2.104-5.471,6.313-30.301-9.259-33.247c-15.571-2.946-39.139-4.208-36.192-4.208
			c0,0-14.31-11.784-20.622-5.892c-6.313,5.892-7.575,20.201-12.206,28.196c-4.629,7.996-10.1,21.884-6.732,23.147
			s16.413-8.838,16.835-13.467c0.42-4.629-3.79-23.988,2.945-21.884c6.734,2.104,15.572,4.209,21.042,10.941
			c5.471,6.734,14.729,13.047,19.78,14.309C479.461,137.995,496.716,144.307,498.819,138.836z"/>
	</g>
</g>
</svg>
